<svg width="23" height="13" viewBox="0 0 23 13" fill="none" xmlns="http://www.w3.org/2000/svg">
<path d="M19.0859 7.45457C18.714 6.99957 18.8204 6.79714 19.0859 6.39043C19.0907 6.38579 22.1603 2.27593 22.4766 0.882143L22.4785 0.881214C22.6357 0.373286 22.4785 0 21.7185 0H19.2037C18.5636 0 18.2684 0.320357 18.1103 0.678786C18.1103 0.678786 16.8299 3.64836 15.0186 5.57329C14.434 6.1295 14.1637 6.30779 13.8446 6.30779C13.6874 6.30779 13.443 6.1295 13.443 5.62157V0.881214C13.443 0.272071 13.2638 0 12.7338 0H8.7796C8.37804 0 8.13941 0.284143 8.13941 0.548786C8.13941 1.12636 9.04506 1.25914 9.13898 2.88414V6.40993C9.13898 7.1825 8.99427 7.32457 8.67322 7.32457C7.81835 7.32457 5.74349 4.34293 4.51391 0.930428C4.26569 0.268357 4.02322 0.000928504 3.37824 0.000928504H0.86253C0.144713 0.000928504 0 0.321286 0 0.679714C0 1.313 0.854863 4.46179 3.9753 8.62179C6.05496 11.4614 8.98373 13 11.648 13C13.2494 13 13.4449 12.6583 13.4449 12.0705C13.4449 9.35721 13.3002 9.10093 14.1024 9.10093C14.4742 9.10093 15.1144 9.27921 16.6094 10.6489C18.3182 12.2729 18.599 13 19.5555 13H22.0702C22.7871 13 23.1503 12.6583 22.9414 11.9841C22.4632 10.5662 19.2315 7.64957 19.0859 7.45457Z" fill="black"/>
</svg>
