<svg width="22" height="21" viewBox="0 0 22 21" fill="none" xmlns="http://www.w3.org/2000/svg">
<path fill-rule="evenodd" clip-rule="evenodd" d="M18.7946 3.05182C16.7265 1.08486 13.9761 0.00115356 11.046 0C5.00821 0 0.0943112 4.66796 0.0918825 10.4053C0.091073 12.2393 0.595415 14.0297 1.55404 15.6077L0 21L5.80695 19.5529C7.407 20.3821 9.20836 20.819 11.0416 20.8195H11.0461C17.0833 20.8195 21.9977 16.1512 22 10.4136C22.0012 7.63301 20.8629 5.01865 18.7946 3.05182ZM11.046 19.0621H11.0422C9.40858 19.0615 7.80637 18.6444 6.4083 17.8565L6.07599 17.669L2.63005 18.5278L3.54982 15.3361L3.33327 15.0089C2.42187 13.6318 1.9406 12.0401 1.94141 10.4059C1.9433 5.63721 6.02768 1.75752 11.0497 1.75752C13.4815 1.75829 15.7675 2.65909 17.4864 4.29395C19.2053 5.92881 20.1514 8.10187 20.1506 10.413C20.1485 15.1821 16.0643 19.0621 11.046 19.0621ZM16.04 12.5844C15.7664 12.4541 14.4207 11.8253 14.1697 11.7384C13.9191 11.6516 13.7364 11.6084 13.5541 11.8686C13.3715 12.1288 12.8471 12.7146 12.6873 12.888C12.5276 13.0616 12.3681 13.0833 12.0944 12.9531C11.8206 12.823 10.9387 12.5483 9.89323 11.6625C9.07964 10.9731 8.53037 10.1216 8.37062 9.86144C8.21114 9.60099 8.36927 9.47384 8.4907 9.3308C8.78699 8.98127 9.08369 8.61482 9.1749 8.4414C9.26624 8.26785 9.2205 8.11597 9.15196 7.98587C9.08369 7.85577 8.53631 6.57596 8.30829 6.05519C8.08593 5.54839 7.86048 5.61683 7.69236 5.60889C7.53288 5.60132 7.35033 5.59979 7.16778 5.59979C6.98537 5.59979 6.68881 5.66477 6.43785 5.92522C6.18703 6.18554 5.48003 6.81449 5.48003 8.09431C5.48003 9.37412 6.46079 10.6105 6.5976 10.784C6.73441 10.9576 8.52767 13.5839 11.2732 14.71C11.9262 14.9781 12.436 15.138 12.8336 15.2578C13.4893 15.4557 14.0858 15.4278 14.5575 15.3609C15.0834 15.2861 16.1767 14.7318 16.405 14.1245C16.633 13.5171 16.633 12.9966 16.5645 12.888C16.4962 12.7796 16.3137 12.7146 16.04 12.5844Z" fill="black"/>
</svg>
