<svg width="18" height="18" viewBox="0 0 18 18" fill="none" xmlns="http://www.w3.org/2000/svg">
<path d="M15.1526 10.7298C14.7598 10.3226 14.2859 10.1048 13.7836 10.1048C13.2854 10.1048 12.8075 10.3185 12.3984 10.7258L11.1185 11.996C11.0132 11.9395 10.9079 11.8871 10.8067 11.8347C10.6609 11.7621 10.5231 11.6935 10.4057 11.621C9.2068 10.8629 8.11727 9.875 7.07229 8.59677C6.566 7.95968 6.22578 7.42339 5.97871 6.87903C6.31083 6.57661 6.61866 6.2621 6.91838 5.95968C7.03179 5.84677 7.1452 5.72984 7.2586 5.61694C8.10917 4.77016 8.10917 3.67339 7.2586 2.82661L6.15287 1.72581C6.02731 1.60081 5.8977 1.47177 5.77619 1.34274C5.53318 1.09274 5.27801 0.834677 5.01474 0.592742C4.62186 0.205645 4.15202 0 3.65789 0C3.16375 0 2.68581 0.205645 2.28078 0.592742L2.27268 0.600806L0.895582 1.98387C0.377143 2.5 0.0814712 3.12903 0.0166664 3.85887C-0.0805408 5.03629 0.267785 6.13306 0.535105 6.85081C1.19125 8.6129 2.17143 10.246 3.63358 11.996C5.40762 14.1048 7.54213 15.7702 9.98041 16.9435C10.912 17.3831 12.1554 17.9032 13.5447 17.9919C13.6297 17.996 13.7188 18 13.7998 18C14.7355 18 15.5212 17.6653 16.1369 17C16.1409 16.9919 16.149 16.9879 16.1531 16.9798C16.3637 16.7258 16.6067 16.496 16.8619 16.25C17.036 16.0847 17.2142 15.9113 17.3884 15.7298C17.7894 15.3145 18 14.8306 18 14.3347C18 13.8347 17.7853 13.3548 17.3763 12.9516L15.1526 10.7298Z" fill="black"/>
</svg>
