<svg width="21" height="20" viewBox="0 0 21 20" fill="none" xmlns="http://www.w3.org/2000/svg">
<path d="M20.4707 5.76918C20.4226 4.72654 20.2462 4.00974 19.9936 3.38862C19.7329 2.72931 19.3319 2.13904 18.8066 1.64834C18.2933 1.15 17.6717 0.762776 16.99 0.517502C16.3365 0.275971 15.5906 0.107364 14.5 0.0613934C13.4011 0.01153 13.0523 0 10.2654 0C7.47852 0 7.12968 0.01153 6.03494 0.0575002C4.94427 0.10347 4.19445 0.272227 3.54487 0.513608C2.85504 0.762776 2.23757 1.14611 1.72427 1.64834C1.20298 2.13904 0.79807 2.7332 0.54134 3.38487C0.288684 4.00974 0.112309 4.72265 0.0642215 5.76529C0.0120611 6.81572 0 7.14919 0 9.81336C0 12.4775 0.0120611 12.811 0.0601489 13.8575C0.108237 14.9002 0.284768 15.617 0.537424 16.2381C0.79807 16.8974 1.20298 17.4877 1.72427 17.9784C2.23757 18.4767 2.85911 18.864 3.5408 19.1092C4.19445 19.3508 4.9402 19.5194 6.03103 19.5653C7.12561 19.6115 7.4746 19.6228 10.2615 19.6228C13.0484 19.6228 13.3972 19.6115 14.492 19.5653C15.5826 19.5194 16.3325 19.3508 16.982 19.1092C18.3616 18.5994 19.4522 17.5567 19.9856 16.2381C20.2381 15.6132 20.4146 14.9002 20.4627 13.8575C20.5108 12.811 20.5228 12.4775 20.5228 9.81336C20.5228 7.14919 20.5188 6.81572 20.4707 5.76918ZM18.6222 13.7809C18.578 14.7392 18.4096 15.2567 18.2693 15.6017C17.9244 16.4566 17.2147 17.1351 16.3204 17.4648C15.9595 17.5989 15.4143 17.7599 14.4157 17.802C13.333 17.8481 13.0083 17.8595 10.2695 17.8595C7.53068 17.8595 7.20189 17.8481 6.12313 17.802C5.12065 17.7599 4.57931 17.5989 4.21841 17.4648C3.7734 17.3076 3.36834 17.0584 3.03956 16.7326C2.69871 16.4144 2.43807 16.031 2.2736 15.6056C2.13325 15.2606 1.96486 14.7392 1.92085 13.7848C1.8726 12.7498 1.8607 12.4392 1.8607 9.821C1.8607 7.2028 1.8726 6.88849 1.92085 5.85738C1.96486 4.89904 2.13325 4.38154 2.2736 4.03654C2.43807 3.61098 2.69871 3.2239 3.04363 2.90945C3.37633 2.58361 3.77732 2.33445 4.22249 2.17737C4.58338 2.0432 5.12879 1.88223 6.1272 1.84001C7.20988 1.79404 7.53475 1.78251 10.2734 1.78251C13.0163 1.78251 13.341 1.79404 14.4198 1.84001C15.4222 1.88223 15.9636 2.0432 16.3245 2.17737C16.7695 2.33445 17.1746 2.58361 17.5033 2.90945C17.8442 3.22765 18.1048 3.61098 18.2693 4.03654C18.4096 4.38154 18.578 4.90279 18.6222 5.85738C18.6703 6.89238 18.6823 7.2028 18.6823 9.821C18.6823 12.4392 18.6703 12.7459 18.6222 13.7809Z" fill="black"/>
<path d="M10.2654 4.77246C7.35425 4.77246 4.99231 7.03024 4.99231 9.81331C4.99231 12.5964 7.35425 14.8542 10.2654 14.8542C13.1766 14.8542 15.5384 12.5964 15.5384 9.81331C15.5384 7.03024 13.1766 4.77246 10.2654 4.77246ZM10.2654 13.0832C8.37678 13.0832 6.84486 11.6189 6.84486 9.81331C6.84486 8.00774 8.37678 6.54344 10.2654 6.54344C12.1541 6.54344 13.6859 8.00774 13.6859 9.81331C13.6859 11.6189 12.1541 13.0832 10.2654 13.0832Z" fill="black"/>
<path d="M16.9781 4.57329C16.9781 5.22316 16.4269 5.7501 15.7469 5.7501C15.0671 5.7501 14.5159 5.22316 14.5159 4.57329C14.5159 3.92327 15.0671 3.39648 15.7469 3.39648C16.4269 3.39648 16.9781 3.92327 16.9781 4.57329Z" fill="black"/>
</svg>
