<svg width="23" height="22" viewBox="0 0 23 22" fill="none" xmlns="http://www.w3.org/2000/svg">
<path d="M23 11C23 4.92422 17.852 0 11.5 0C5.14805 0 0 4.92422 0 11C0 17.0758 5.14805 22 11.5 22C11.5674 22 11.6348 22 11.7021 21.9957V13.4363H9.23145V10.682H11.7021V8.65391C11.7021 6.30352 13.2025 5.02305 15.3947 5.02305C16.4459 5.02305 17.3488 5.09609 17.6094 5.13047V7.58828H16.1C14.9096 7.58828 14.676 8.12969 14.676 8.92461V10.6777H17.5285L17.1557 13.432H14.676V21.5746C19.4826 20.2555 23 16.023 23 11Z" fill="black"/>
</svg>
