<svg width="66" height="88" viewBox="0 0 66 88" fill="none" xmlns="http://www.w3.org/2000/svg">
<path d="M3.05872 78.5235L16.3086 55.479L22.7719 63.9073L27.2962 62.8405L15.0159 85.885L11.5688 76.9232L3.05872 78.5235Z" fill="white"/>
<path d="M51.9647 85.885L38.3916 63.9073H43.9932L49.2716 55.479L63.3832 79.1637L54.9809 77.67L51.9647 85.885Z" fill="white"/>
<path d="M23.941 8.21372L31.6745 2.11328L42.0933 8.21372L53.4787 9.60505L56.2713 20.3076L64.0048 27.9064L58.9566 37.9667L59.4936 48.9903L49.8268 53.3784L42.0933 63.5458L33.0709 59.9069L21.3632 63.5458L14.3816 53.3784L4.82211 48.9903L6.54066 38.7159L1.81464 26.8361L9.33331 19.3443L12.3408 9.06992L23.941 8.21372Z" fill="#FFCC34"/>
<ellipse cx="32.9107" cy="32.519" rx="21.1447" ry="20.4775" fill="#00728F"/>
<path d="M29.6144 28.6294L31.7632 24.0197L32.5153 23.1621C33.5539 24.8059 35.674 28.1363 35.8459 28.3078C36.0178 28.4793 39.4988 29.5228 41.2179 30.0231L37.9947 33.6679L39.0691 40.8505L33.2674 37.7416L26.3912 40.8505L27.1433 33.3463L24.135 29.7015L29.6144 28.6294Z" fill="#FFCC34" stroke="black"/>
<path d="M64.6334 31.1214C65.8905 28.9195 65.4049 26.1343 63.4731 24.4963L57.652 19.565C57.3297 19.2905 57.1105 18.9068 57.0353 18.4822L55.7181 11.0274C55.2776 8.51455 53.1181 6.69211 50.5825 6.69211H42.9801C42.5675 6.69211 42.1657 6.54417 41.8584 6.28474L36.0374 1.24623C36.0331 1.24194 36.0266 1.23765 36.0223 1.23336C34.0777 -0.411121 31.252 -0.411121 29.3052 1.23336C29.3009 1.23765 29.2945 1.24194 29.2902 1.24623L23.4799 6.27188C23.1618 6.54203 22.76 6.68997 22.3474 6.68997H14.745C12.2116 6.68997 10.0521 8.51241 9.61156 11.0231L8.29007 18.4822C8.21701 18.9046 7.99997 19.2862 7.67765 19.5607L1.85444 24.4941C-0.0751712 26.1322 -0.562952 28.9173 0.69409 31.1193L4.4953 37.7679C4.70803 38.141 4.78538 38.5784 4.71018 39.0008L3.39083 46.5607C2.95463 49.0692 4.35994 51.522 6.7365 52.3925L13.8791 55.0189C14.0209 55.0726 14.1541 55.1412 14.2787 55.2291L1.04221 78.3934C0.287981 79.7141 1.50634 81.2943 2.9804 80.8998L10.7118 78.8329L12.7832 86.5472C13.1786 88.0201 15.1726 88.2903 15.9376 86.9524L29.5996 63.0484L32.0643 62.1436C32.451 62 32.8808 62.0021 33.2654 62.1436L35.9149 63.117L50.5761 86.9996C51.3625 88.2817 53.3115 88.0051 53.7026 86.5472L55.774 78.8329L63.5053 80.8998C64.9987 81.3007 66.2257 79.6669 65.4156 78.3462L51.1734 55.1476C51.2615 55.0961 51.3539 55.0511 51.4485 55.0168L58.5889 52.3904C60.9676 51.5177 62.3772 49.0628 61.9367 46.5564L60.6174 38.9965C60.5443 38.5741 60.6195 38.1367 60.8322 37.7637L64.6334 31.1214ZM15.0222 81.6309L13.5868 76.2901C13.3419 75.3745 12.3985 74.8321 11.481 75.0765L6.06821 76.5238L16.3588 58.5159L18.6128 62.4567C19.8226 64.575 22.2959 65.5548 24.5994 64.8751L15.0222 81.6309ZM60.2349 76.4766L55.0026 75.0787C54.0851 74.8342 53.1417 75.3767 52.8968 76.2922L51.4163 81.8067L41.0806 64.9716C41.4545 65.0531 41.8284 65.0938 42.2023 65.0938C44.0244 65.0938 45.7628 64.129 46.7169 62.4609L49.0848 58.3186L60.2349 76.4766ZM57.8454 36.0677C57.2373 37.1312 57.0181 38.3833 57.2287 39.5904L58.5481 47.1503C58.7028 48.0229 58.2193 48.8741 57.4006 49.1743L50.2602 51.8007C49.1901 52.1931 48.2812 52.9349 47.6666 53.8955C47.5957 53.9877 47.5355 54.0842 47.4861 54.1871L43.7279 60.7607C43.2981 61.5154 42.3999 61.8477 41.5941 61.554C41.3685 61.4704 34.6321 58.994 34.4494 58.9276C33.2977 58.5052 32.0277 58.5052 30.8717 58.9276C30.7342 58.9769 27.6872 60.0982 23.7313 61.554C22.9255 61.8499 22.0273 61.5154 21.5954 60.7607L18.0585 54.5773C17.9768 54.2557 17.8028 53.9555 17.5471 53.724C16.9368 52.847 16.0687 52.1738 15.0652 51.805L7.92477 49.1786C7.10823 48.8805 6.62475 48.0272 6.77731 47.1524L8.09667 39.5947C8.30725 38.3876 8.09023 37.1376 7.48212 36.072L3.68091 29.4233C3.24041 28.6536 3.41016 27.6823 4.08058 27.1142L9.90381 22.1807C10.8364 21.3896 11.4681 20.2875 11.6787 19.0804L13.0002 11.6213C13.1528 10.7551 13.8877 10.1247 14.7493 10.1247H22.3517C23.5787 10.1247 24.7713 9.6852 25.7232 8.87904L31.5357 3.8491C32.191 3.30023 33.1387 3.30023 33.794 3.8491L39.6194 8.88976C40.5584 9.6852 41.751 10.1247 42.9801 10.1247H50.5804C51.442 10.1247 52.1769 10.7551 52.3295 11.6234L53.6488 19.0804C53.8616 20.2897 54.4933 21.3896 55.4259 22.1807L61.247 27.112C61.9195 27.6823 62.0871 28.6536 61.6466 29.4233L57.8454 36.0677Z" fill="#00485A"/>
<path d="M18.9125 18.8465C19.8622 18.8465 20.6315 18.0768 20.6315 17.1313C20.6315 16.1814 19.8622 15.416 18.9125 15.416C17.9648 15.416 17.1934 16.1814 17.1934 17.1313C17.1934 18.0789 17.9627 18.8465 18.9125 18.8465Z" fill="#00485A"/>
</svg>
