<svg width="120" height="115" viewBox="0 0 120 115" fill="none" xmlns="http://www.w3.org/2000/svg">
<g filter="url(#filter0_d_1_954)">
<path d="M55.6401 74.5887C55.2334 74.1979 54.6691 73.9763 54.0938 73.9763C53.5184 73.9763 52.9541 74.1979 52.5472 74.5887C52.1403 74.9774 51.9062 75.5145 51.9062 76.0662C51.9062 76.6158 52.1401 77.155 52.5472 77.5437C52.9541 77.9324 53.5184 78.156 54.0938 78.156C54.6691 78.156 55.2334 77.9324 55.6401 77.5437C56.047 77.155 56.2812 76.6158 56.2812 76.0662C56.2812 75.5165 56.0472 74.9774 55.6401 74.5887Z" fill="#00485A"/>
<path d="M21.5 52L30.5 48.5L39 56L46 48.5L55.5 51.5L60 57V69H18V60L21.5 52Z" fill="#00728F"/>
<rect x="30" y="26" width="18" height="10" rx="2" fill="#FFCC34"/>
<path d="M75.041 2.0002H103.959C109.496 2.0002 114 6.25203 114 11.4782V31.7611C114 36.9873 109.496 41.2392 103.959 41.2392H83.9054L77.3311 47.445C76.947 47.8074 76.4335 48.0002 75.9107 48.0002C75.6521 48.0002 75.391 47.953 75.1426 47.8558C74.3923 47.5623 73.9029 46.871 73.9029 46.1044V41.1787C68.8999 40.6437 65 36.6243 65 31.7611V11.4782C65 6.25203 69.5044 2.0002 75.041 2.0002Z" fill="#FFCC34"/>
<path d="M102 56.0097C100.792 56.0097 99.8125 56.9454 99.8125 58.0996V67.2905H62.1875V62.1321C62.1875 54.1853 55.9326 47.6123 47.8802 46.659C49.4716 44.7827 50.4277 42.3955 50.4277 39.7978V25.0957C50.4277 23.9415 49.4482 23.0059 48.2402 23.0059H36.7948C31.7097 23.0059 27.5727 26.9582 27.5727 31.8163V39.7978C27.5727 42.3953 28.5287 44.7825 30.1203 46.659C22.0674 47.6125 15.8125 54.1855 15.8125 62.1324V67.2907H8.375V17.0831C8.375 16.1894 9.14084 15.4626 10.0823 15.4626H55.5522C56.7601 15.4626 57.7397 14.527 57.7397 13.3728C57.7397 12.2185 56.7601 11.2829 55.5522 11.2829H10.0823C6.72869 11.2829 4 13.8848 4 17.0831V79.0453C4 82.2436 6.72869 84.8454 10.0823 84.8454H43.3706V94.4992C37.8522 95.0332 33.5312 99.4975 33.5312 104.908C33.5312 106.062 34.5108 106.998 35.7187 106.998H72.4687C73.6767 106.998 74.6562 106.062 74.6562 104.908C74.6562 99.4977 70.3353 95.0334 64.8171 94.4992V84.8454H98.1054C101.459 84.8454 104.188 82.2436 104.188 79.0453V58.0996C104.187 56.9456 103.208 56.0097 102 56.0097ZM31.9475 31.8167C31.9475 29.2633 34.1219 27.186 36.7946 27.186H46.0525V30.5226C46.0525 32.1803 44.6409 33.5289 42.9056 33.5289H31.9475V31.8167ZM31.9475 37.7086H42.9058C44.0291 37.7086 45.0946 37.4705 46.0527 37.0469V39.7982C46.0527 43.5133 42.8887 46.5359 39 46.5359C35.1113 46.5359 31.9475 43.5133 31.9475 39.7982V37.7086ZM41.5526 50.7155L39 53.1542L36.4474 50.7155H41.5526ZM20.1875 62.1324C20.1875 56.4047 24.6259 51.6499 30.3891 50.8388L37.453 57.5874C37.8802 57.9955 38.44 58.1995 38.9998 58.1995C39.5596 58.1995 40.1193 57.9955 40.5466 57.5874L47.6104 50.8388C53.3741 51.6499 57.8125 56.4047 57.8125 62.1324V67.2907H20.1875V62.1324ZM69.907 102.818H38.2801C39.1835 100.378 41.6224 98.6252 44.4823 98.6252H45.5581H62.6296H63.705C66.5647 98.6252 69.0035 100.378 69.907 102.818ZM47.7456 94.4455V84.8454H60.4421V94.4455H47.7456ZM99.8125 79.0453C99.8125 79.9387 99.0466 80.6657 98.1051 80.6657H10.0823C9.14084 80.6657 8.375 79.9387 8.375 79.0453V71.4704H99.8125V79.0453Z" fill="#00485A"/>
<path d="M103.546 48.7499C103.14 48.3612 102.575 48.1375 102 48.1375C101.425 48.1375 100.86 48.3612 100.453 48.7499C100.047 49.1407 99.8125 49.6778 99.8125 50.2274C99.8125 50.7791 100.046 51.3162 100.453 51.7049C100.86 52.0957 101.425 52.3172 102 52.3172C102.575 52.3172 103.14 52.0957 103.546 51.7049C103.953 51.3162 104.188 50.7791 104.188 50.2274C104.188 49.6778 103.953 49.1386 103.546 48.7499Z" fill="#00485A"/>
<path d="M102 9.82451H85.5938C84.3858 9.82451 83.4062 10.7601 83.4062 11.9144C83.4062 13.0686 84.3858 14.0042 85.5938 14.0042H102C103.208 14.0042 104.188 13.0686 104.188 11.9144C104.188 10.7601 103.208 9.82451 102 9.82451Z" fill="#00485A"/>
<path d="M78.1713 10.4368C77.7647 10.0481 77.2003 9.82451 76.625 9.82451C76.0497 9.82451 75.4853 10.0481 75.0784 10.4368C74.6716 10.8255 74.4375 11.3647 74.4375 11.9144C74.4375 12.464 74.6713 13.0032 75.0784 13.3919C75.4855 13.7806 76.0497 14.0042 76.625 14.0042C77.2003 14.0042 77.7647 13.7806 78.1713 13.3919C78.5782 13.0032 78.8125 12.464 78.8125 11.9144C78.8125 11.3647 78.5784 10.8255 78.1713 10.4368Z" fill="#00485A"/>
<path d="M102 19.0198H76.625C75.4171 19.0198 74.4375 19.9554 74.4375 21.1097C74.4375 22.2639 75.4171 23.1995 76.625 23.1995H102C103.208 23.1995 104.188 22.2639 104.188 21.1097C104.188 19.9554 103.208 19.0198 102 19.0198Z" fill="#00485A"/>
<path d="M102 28.2151H76.625C75.4171 28.2151 74.4375 29.1507 74.4375 30.305C74.4375 31.4592 75.4171 32.3948 76.625 32.3948H102C103.208 32.3948 104.188 31.4592 104.188 30.305C104.188 29.1507 103.208 28.2151 102 28.2151Z" fill="#00485A"/>
<path d="M105.062 0.00224304H73.5625C67.5316 0.00224304 62.625 4.68976 62.625 10.4515V32.8128C62.625 38.1743 66.8731 42.6056 72.3228 43.1953V48.6258C72.3228 49.4709 72.8559 50.2331 73.6732 50.5566C73.9438 50.6638 74.2282 50.7159 74.5099 50.7159C75.0793 50.7159 75.6387 50.5033 76.0571 50.1037L83.2183 43.262H105.062C111.093 43.262 116 38.5745 116 32.8128V10.4515C116 4.68976 111.093 0.00224304 105.062 0.00224304ZM111.625 32.8128C111.625 36.2698 108.681 39.0823 105.062 39.0823H82.3125C81.7324 39.0823 81.1761 39.3026 80.7657 39.6944L76.6978 43.5807V41.1722C76.6978 40.0179 75.7183 39.0823 74.5103 39.0823H73.5625C69.9439 39.0823 67 36.2698 67 32.8128V10.4515C67 6.99444 69.9439 4.18193 73.5625 4.18193H105.062C108.681 4.18193 111.625 6.99444 111.625 10.4515V32.8128Z" fill="#00485A"/>
</g>
<defs>
<filter id="filter0_d_1_954" x="0" y="0" width="120" height="115" filterUnits="userSpaceOnUse" color-interpolation-filters="sRGB">
<feFlood flood-opacity="0" result="BackgroundImageFix"/>
<feColorMatrix in="SourceAlpha" type="matrix" values="0 0 0 0 0 0 0 0 0 0 0 0 0 0 0 0 0 0 127 0" result="hardAlpha"/>
<feOffset dy="4"/>
<feGaussianBlur stdDeviation="2"/>
<feComposite in2="hardAlpha" operator="out"/>
<feColorMatrix type="matrix" values="0 0 0 0 0 0 0 0 0 0 0 0 0 0 0 0 0 0 0.25 0"/>
<feBlend mode="normal" in2="BackgroundImageFix" result="effect1_dropShadow_1_954"/>
<feBlend mode="normal" in="SourceGraphic" in2="effect1_dropShadow_1_954" result="shape"/>
</filter>
</defs>
</svg>
