<svg width="106" height="114" viewBox="0 0 106 114" fill="none" xmlns="http://www.w3.org/2000/svg">
<g clip-path="url(#clip0_1_877)" filter="url(#filter0_d_1_877)">
<rect x="41.976" y="58.9136" width="27" height="10" transform="rotate(119.428 41.976 58.9136)" fill="#00728F"/>
<path d="M41.0004 62.4848L57.5004 63L55.5004 74.5L58.0004 76.5L64.5004 72.5L87.5004 86L85.5004 91H81.0004L78.0004 95.5L72.5004 100.5L66.0004 99L62.5004 104.5L57.0004 101L56.5004 97L53.0004 94L51.0004 88L47.5004 87L44.0004 83L39.5004 84.5L30.5004 80.5L41.0004 62.4848Z" fill="#FFCC34"/>
<path d="M63.0004 3L72.5004 11L80.0004 19L64.5004 18.5L63.0004 3Z" fill="#00728F"/>
<path d="M69.3458 28.5295H18.584C17.7227 28.5295 17.0246 29.2277 17.0246 30.0889C17.0246 30.9502 17.7227 31.6483 18.584 31.6483H69.346C70.2072 31.6483 70.9053 30.9502 70.9053 30.0889C70.9053 29.2277 70.207 28.5295 69.3458 28.5295Z" fill="#00485A"/>
<path d="M18.584 20.8316H43.9647C44.826 20.8316 45.5241 20.1334 45.5241 19.2722C45.5241 18.4109 44.826 17.7128 43.9647 17.7128H18.584C17.7227 17.7128 17.0246 18.4109 17.0246 19.2722C17.0246 20.1337 17.7227 20.8316 18.584 20.8316Z" fill="#00485A"/>
<path d="M69.3458 38.1135H18.584C17.7227 38.1135 17.0246 38.8116 17.0246 39.6728C17.0246 40.5341 17.7227 41.2322 18.584 41.2322H69.346C70.2072 41.2322 70.9053 40.5341 70.9053 39.6728C70.9051 38.8116 70.207 38.1135 69.3458 38.1135Z" fill="#00485A"/>
<path d="M30.1471 95.1656H13.902C11.2356 95.1656 9.06614 92.9964 9.06614 90.33V7.95435C9.06614 5.28799 11.2356 3.11851 13.902 3.11851H60.7026C60.8538 3.11851 61.0026 3.13238 61.1498 3.15226V12.8773C61.1498 17.2635 64.7182 20.8317 69.1042 20.8317H78.829C78.8491 20.9791 78.8628 21.128 78.8628 21.2791V47.8331C78.8628 48.6944 79.5609 49.3925 80.4222 49.3925C81.2834 49.3925 81.9815 48.6944 81.9815 47.8331V21.2793C81.9815 19.5688 81.3153 17.9606 80.1058 16.7509L65.2306 1.8757C64.0211 0.666227 62.4131 0 60.7026 0H13.902C9.51582 0 5.94763 3.56839 5.94763 7.95435V90.33C5.94763 94.716 9.51602 98.2841 13.902 98.2841H30.1471C31.0084 98.2841 31.7065 97.586 31.7065 96.7248C31.7065 95.8635 31.0084 95.1656 30.1471 95.1656ZM76.6577 17.7132H69.1044C66.438 17.7132 64.2685 15.5437 64.2685 12.8773V5.32402L76.6577 17.7132Z" fill="#00485A"/>
<path d="M99.5733 76.3385L86.361 54.0371C85.3981 52.4111 83.3025 51.8736 81.6757 52.8373L78.4619 54.7414C75.9674 56.2192 74.913 59.2098 75.7695 61.86C74.6867 62.2523 73.4996 62.2461 72.4065 61.8235C69.8691 61.0252 67.94 59.4193 64.754 60.2251C59.3442 61.6024 59.5086 61.5335 59.0192 61.7012C55.8516 59.8977 53.9476 59.3611 50.585 60.6619L47.5876 61.8206C46.1998 62.3569 44.6707 62.2297 43.3883 61.4699L42.5704 60.9878C42.9695 58.5961 41.9089 56.0722 39.663 54.7418L36.4493 52.8378C34.827 51.8769 32.7252 52.4148 31.7642 54.0371L18.5514 76.3387C17.5885 77.9643 18.1243 80.0605 19.7508 81.0238L22.9643 82.9277C23.9367 83.5039 25.0054 83.7778 26.0613 83.7778C27.2387 83.7778 28.3995 83.4366 29.392 82.7939L30.0617 83.1892L28.6477 85.1587C26.9627 87.506 27.4981 90.77 29.8458 92.4553C30.9315 93.2345 32.2954 93.5904 33.7059 93.3689C33.9297 94.6771 34.6465 95.9015 35.8071 96.735C36.8971 97.5176 38.2548 97.8739 39.6678 97.6513C39.8922 98.9585 40.6085 100.182 41.7685 101.015C43.3275 102.134 45.2657 102.263 46.8808 101.573C47.2342 102.491 47.8484 103.32 48.7053 103.936C50.9429 105.542 54.0252 105.123 55.7638 103.042L59.5215 105.268C62.0065 106.741 65.2128 105.922 66.6862 103.434C67.063 102.798 67.2967 102.105 67.3822 101.393L67.3907 101.398C69.872 102.867 73.0855 102.045 74.5555 99.5641C74.9811 98.8455 75.2144 98.066 75.2712 97.2849C77.4582 97.8348 79.8418 96.9162 81.0488 94.879C81.4448 94.2107 81.6744 93.4888 81.75 92.7623C84.094 93.6821 86.8336 92.7931 88.1574 90.5589C88.8694 89.357 89.0708 87.9501 88.7245 86.5967C88.5263 85.8224 88.162 85.1195 87.6618 84.526L89.7329 83.3159C91.485 84.0351 93.4845 83.92 95.1602 82.9275L98.3734 81.0236C99.9998 80.0609 100.537 77.9651 99.5733 76.3385ZM24.5539 80.2448L21.3403 78.3407C21.1975 78.256 21.1501 78.0709 21.2346 77.9281L34.4473 55.6261C34.5324 55.4826 34.7181 55.436 34.8601 55.5205L38.0734 57.4241C39.5013 58.2703 39.9481 60.1017 39.1175 61.5035L28.6332 79.2005C27.7964 80.6133 25.9667 81.0814 24.5539 80.2448ZM31.6644 89.9218C30.7174 89.2419 30.5009 87.9248 31.1812 86.9774L33.2596 84.0823C33.9216 83.16 35.241 82.9076 36.2039 83.5989C37.149 84.2773 37.3658 85.598 36.6876 86.5431L34.609 89.4382C33.9305 90.3837 32.6091 90.5998 31.6644 89.9218ZM37.6258 94.2018C36.6807 93.5231 36.464 92.2021 37.1424 91.2572L39.2208 88.3623L41.5147 85.1669C41.8435 84.7092 42.3306 84.4065 42.8867 84.3154C43.0022 84.2964 43.118 84.2871 43.2329 84.2871C43.6705 84.2871 44.0964 84.4233 44.4591 84.6835C44.9167 85.0123 45.2193 85.4992 45.3104 86.0553C45.4017 86.6116 45.2711 87.17 44.9423 87.6277L40.57 93.7182C39.8906 94.6653 38.5732 94.8821 37.6258 94.2018ZM43.5873 98.4813C42.6426 97.8031 42.4257 96.4831 43.1029 95.5382L43.1037 95.5369L47.476 89.4467C48.154 88.5018 49.4757 88.2848 50.4204 88.9631C51.3655 89.6415 51.5822 90.9624 50.9038 91.9075L48.9612 94.6136L46.5315 97.9979C45.8531 98.943 44.5326 99.1602 43.5873 98.4813ZM50.5241 101.402C49.5796 100.724 49.3624 99.4045 50.0392 98.4594L51.4944 96.4325C52.1727 95.4872 53.4942 95.2711 54.4389 95.9491C55.3837 96.6274 55.6007 97.9484 54.9223 98.8935L53.4683 100.918C52.7901 101.864 51.4688 102.081 50.5241 101.402ZM85.4749 88.9695C84.8815 89.9709 83.5847 90.303 82.5831 89.7098C80.8871 88.7051 69.9467 82.2236 68.7803 81.5325C68.0391 81.0936 67.0829 81.3381 66.644 82.0791C66.2051 82.82 66.4496 83.7765 67.1905 84.2154L77.6255 90.3976C78.6273 90.9909 78.9617 92.284 78.3661 93.2898C77.7725 94.2916 76.475 94.6231 75.4738 94.0304C71.6144 91.7439 68.4805 89.8872 65.0333 87.8449C64.2919 87.406 63.3358 87.6505 62.8969 88.3914C62.458 89.1324 62.7025 90.0889 63.4435 90.5278L71.1322 95.0829L71.1338 95.0839C72.1363 95.6792 72.4671 96.9714 71.8727 97.9751C71.2792 98.977 69.9821 99.3088 68.9803 98.7155L64.854 96.2711L64.8525 96.2702L64.8513 96.2696L61.84 94.4854C61.0988 94.0463 60.1426 94.2908 59.7037 95.032C59.2647 95.7729 59.5093 96.7294 60.2502 97.1683L63.2621 98.9527L63.2633 98.9536C64.2652 99.5469 64.5993 100.84 64.0037 101.845C63.4101 102.847 62.1131 103.179 61.1113 102.586L57.5977 100.504C59.1039 98.1803 58.531 95.0483 56.2576 93.4165C55.5899 92.9374 54.8465 92.6391 54.0861 92.511C54.8927 90.3543 54.1972 87.8364 52.2389 86.4307C51.0796 85.598 49.6914 85.3104 48.3813 85.5158C48.1482 84.1525 47.4027 82.9583 46.2779 82.1511C44.1624 80.6329 41.2876 80.9247 39.5119 82.7211C39.151 82.0873 38.6529 81.5188 38.0227 81.0665C36.2648 79.8048 33.9825 79.793 32.2422 80.8557L31.5277 80.434L41.3348 63.88L41.8017 64.1553C43.8637 65.3768 46.3799 65.6315 48.7119 64.7296L51.7094 63.5709C53.4246 62.908 54.3705 62.8647 56.0672 63.6653C54.9571 64.9124 54.2981 66.5499 54.2981 68.3146V75.2284C54.2981 77.0648 55.791 78.5597 57.6259 78.561H57.6304C59.4709 78.561 61.2017 77.8444 62.5037 76.5433C63.2627 75.7847 63.823 74.8804 64.1588 73.8933C66.1721 75.0855 82.8065 84.9359 84.735 86.0785C85.22 86.3659 85.5641 86.8248 85.7039 87.371C85.8436 87.9165 85.7623 88.4844 85.4749 88.9695ZM96.7846 78.3407L93.5709 80.2448C92.1581 81.0812 90.3283 80.6127 89.4919 79.2007L84.5778 70.906C84.1387 70.165 83.1818 69.9205 82.4415 70.359C81.7005 70.7979 81.4558 71.7544 81.8945 72.4954L86.8086 80.7903C86.9011 80.9464 87.0015 81.0948 87.1055 81.2396L85.7393 82.0377C85.4631 82.2012 85.1975 82.3813 84.9435 82.577L63.7594 70.0319C62.7215 69.4177 61.4057 70.1665 61.4057 71.3735C61.3893 71.4666 61.5667 73.0695 60.2991 74.3367C59.5861 75.0491 58.6383 75.4416 57.6302 75.4416H57.6278C57.5112 75.4416 57.4164 75.3456 57.4164 75.2276V68.3138C57.4164 66.5076 58.659 64.9839 60.3394 64.5584L65.5185 63.2477C67.3978 62.7728 68.46 63.7763 71.2738 64.7286C73.2271 65.4843 75.3511 65.4377 77.2363 64.6325L78.1775 66.2213C78.6166 66.9627 79.5731 67.207 80.3138 66.7683C81.0548 66.3294 81.2995 65.3729 80.8608 64.6319L79.007 61.5031C78.1684 60.0874 78.6356 58.263 80.0511 57.4239L83.2646 55.5203C83.405 55.4368 83.5907 55.4795 83.6777 55.6261L96.89 77.9277C96.9753 78.0716 96.9283 78.2556 96.7846 78.3407Z" fill="#00485A"/>
</g>
<defs>
<filter id="filter0_d_1_877" x="-4" y="0" width="114" height="114" filterUnits="userSpaceOnUse" color-interpolation-filters="sRGB">
<feFlood flood-opacity="0" result="BackgroundImageFix"/>
<feColorMatrix in="SourceAlpha" type="matrix" values="0 0 0 0 0 0 0 0 0 0 0 0 0 0 0 0 0 0 127 0" result="hardAlpha"/>
<feOffset dy="4"/>
<feGaussianBlur stdDeviation="2"/>
<feComposite in2="hardAlpha" operator="out"/>
<feColorMatrix type="matrix" values="0 0 0 0 0 0 0 0 0 0 0 0 0 0 0 0 0 0 0.25 0"/>
<feBlend mode="normal" in2="BackgroundImageFix" result="effect1_dropShadow_1_877"/>
<feBlend mode="normal" in="SourceGraphic" in2="effect1_dropShadow_1_877" result="shape"/>
</filter>
<clipPath id="clip0_1_877">
<rect width="106" height="106" fill="white"/>
</clipPath>
</defs>
</svg>
