<svg width="111" height="112" viewBox="0 0 111 112" fill="none" xmlns="http://www.w3.org/2000/svg">
<path d="M41.7153 24.874L50.692 20.1216H61.7807L71.8134 24.874L77.0938 35.4347V49.6917L56.5004 40.1871L34.8508 49.1637V35.4347L41.7153 24.874Z" fill="#FFCC34"/>
<path d="M27.83 82.7644C28.5731 80.6176 30.4649 79.0747 32.7172 78.7783L46.4533 76.9709C48.1427 76.7486 49.847 77.2552 51.1407 78.3641L52.4358 79.4742C54.7516 81.4592 58.1882 81.3909 60.4233 79.3154L61.7196 78.1117C63.0894 76.8398 64.9737 76.2789 66.8161 76.5947L79.1951 78.7169C81.1802 79.0571 82.8621 80.3707 83.6732 82.2142L88.1826 92.4628C88.9104 93.9184 87.852 95.631 86.2246 95.631H51.4538C49.9454 95.631 48.4924 95.0629 47.3841 94.0398L46.0335 92.7931C43.8541 90.7813 40.5317 90.6639 38.2156 92.5167L36.6794 93.7457C35.1968 94.9318 33.2404 95.3461 31.4043 94.863L30.5507 94.6383C27.1727 93.7494 25.2651 90.1741 26.4077 86.8732L27.83 82.7644Z" fill="#00728F"/>
<path d="M91.7043 97.4193L87.485 84.7596C86.0106 80.3398 82.2488 77.0774 77.6631 76.2427L65.4828 74.0264V73.0823C67.6025 71.8521 69.447 70.2063 70.9159 68.258H74.5957C77.6103 68.258 80.0635 65.8048 80.0635 62.7902V40.9192C80.0635 27.855 69.4342 17.2257 56.3699 17.2257C43.3057 17.2257 32.6764 27.855 32.6764 40.9192V53.6773C32.6764 57.1912 35.1751 60.1311 38.4886 60.8164C39.5111 66.0545 42.7844 70.487 47.257 73.0823V74.0264L35.0749 76.2427C30.4911 77.0774 26.7275 80.3398 25.2548 84.7596L24.5258 86.9485L18.3181 80.7408C17.6073 80.03 17.6073 78.8727 18.3181 78.1619L25.5173 70.9645L12.0047 57.4519L3.86868 65.5879C1.45922 67.9973 0.132385 71.2014 0.132385 74.6096C0.132385 78.0179 1.45922 81.2201 3.86868 83.6296L28.5009 108.262C30.9103 110.671 34.1144 112 37.5226 112C40.9309 112 44.1331 110.671 46.4861 108.316L55.3639 100.182L52.5954 97.4193H91.7043ZM76.4183 62.7902C76.4183 63.7963 75.6 64.6128 74.5957 64.6128H73.063C73.5915 63.4081 73.9925 62.1377 74.2513 60.8164C75.0313 60.6541 75.7494 60.3443 76.4183 59.9543V62.7902ZM74.5957 56.8158V50.5388C75.6802 51.1713 76.4183 52.3341 76.4183 53.6773C76.4183 55.0205 75.6802 56.1834 74.5957 56.8158ZM38.1441 56.8158C37.0597 56.1834 36.3215 55.0205 36.3215 53.6773C36.3215 52.3341 37.0597 51.1713 38.1441 50.5388V56.8158ZM38.1441 44.5644V46.6458C37.4953 46.8153 36.8865 47.0705 36.3215 47.4003V40.9192C36.3215 29.8653 45.316 20.8709 56.3699 20.8709C67.4239 20.8709 76.4183 29.8653 76.4183 40.9192V47.4003C75.8533 47.0705 75.2446 46.8135 74.5957 46.6458V44.5644H72.7732C67.3838 44.5644 62.317 42.4648 58.5042 38.6538L56.3699 36.5195L54.2357 38.6538C50.4229 42.4648 45.3561 44.5644 39.9667 44.5644H38.1441ZM41.7893 57.3225V48.1403C47.2625 47.7284 52.3657 45.4702 56.3699 41.6629C60.3741 45.4702 65.4774 47.7302 70.9506 48.1403V57.3225C70.9506 59.9798 70.2252 62.4658 68.9786 64.6128H56.3699V68.258H65.9822C63.4124 70.5198 60.0534 71.9031 56.3699 71.9031C48.3305 71.9031 41.7893 65.3619 41.7893 57.3225ZM61.8377 74.7081V74.7937L56.3699 80.2615L50.9022 74.7937V74.7081C52.63 75.2512 54.4653 75.5483 56.3699 75.5483C58.2745 75.5483 60.1099 75.2512 61.8377 74.7081ZM28.7104 85.9115C29.7621 82.7548 32.4504 80.4237 35.7256 79.8259L48.4654 77.5112L56.3699 85.4157L64.2726 77.513L77.0107 79.8277C80.2858 80.4255 82.9741 82.7548 84.0258 85.9133L86.6485 93.7741H48.9502L41.8513 86.6751L33.9631 93.8105C33.276 94.5013 32.0749 94.5013 31.386 93.8105L27.4055 89.83L28.7104 85.9115ZM12.0029 62.6061L20.3612 70.9645L18.3819 72.9438L10.0235 64.5855L12.0029 62.6061ZM43.9618 105.688C42.2413 107.405 39.9521 108.355 37.519 108.355C35.0858 108.355 32.7967 107.405 31.0743 105.685L6.44216 81.0543C4.72164 79.3338 3.7739 77.0446 3.7739 74.6115C3.7739 72.1765 4.72164 69.8873 6.44216 68.1668L7.44458 67.1644L15.8029 75.5228L15.7373 75.5884C13.6067 77.7208 13.6067 81.1892 15.7373 83.3216L28.807 96.3913C29.8404 97.4229 31.2129 97.9934 32.6746 97.9934C34.1363 97.9934 35.5087 97.4247 36.4746 96.4551L36.6113 96.333L45.008 104.73L43.9618 105.688ZM47.6981 102.262L39.3197 93.8834L41.7273 91.7073L50.0911 100.071L47.6981 102.262Z" fill="#00485A"/>
</svg>
