<svg width="108" height="108" viewBox="0 0 108 108" fill="none" xmlns="http://www.w3.org/2000/svg">
<g clip-path="url(#clip0_1_894)">
<path d="M106 103.129C106 104.162 105.161 105 104.125 105H62.8751C61.8396 105 61.0001 104.162 61.0001 103.129V48.8711C61.0001 47.8377 61.8396 47.0001 62.8751 47.0001H104.125C105.161 47.0001 106 47.8377 106 48.8711V103.129Z" fill="#00728F"/>
<rect x="15.0001" y="30.0001" width="45" height="7" fill="#FFCC34"/>
<path d="M71.3335 67.0001H94.6668C96.5077 67.0001 98.0001 65.6569 98.0001 64.0001V58.0001C98.0001 56.3432 96.5077 55.0001 94.6668 55.0001H71.3335C69.4925 55.0001 68.0001 56.3432 68.0001 58.0001V64.0001C68.0001 65.6569 69.4925 67.0001 71.3335 67.0001Z" fill="#EFEFEE"/>
<path d="M48.6005 62.1C48.6005 63.0941 49.4064 63.9 50.4005 63.9C51.3946 63.9 52.2005 63.0941 52.2005 62.1C52.2005 56.1456 46.6925 51.2244 39.6005 50.5008V48.6C39.6005 47.6059 38.7946 46.8 37.8005 46.8C36.8064 46.8 36.0005 47.6059 36.0005 48.6V50.5008C28.9085 51.2208 23.4005 56.1456 23.4005 62.1C23.4005 68.0544 28.9085 72.9756 36.0005 73.6992V89.8776C30.9011 89.2332 27.0005 85.905 27.0005 81.9C27.0005 80.9059 26.1946 80.1 25.2005 80.1C24.2064 80.1 23.4005 80.9059 23.4005 81.9C23.4005 87.8544 28.9085 92.7756 36.0005 93.4992V95.4C36.0005 96.3941 36.8064 97.2 37.8005 97.2C38.7946 97.2 39.6005 96.3941 39.6005 95.4V93.4992C46.6925 92.7792 52.2005 87.8544 52.2005 81.9C52.2005 75.9456 46.6925 71.0244 39.6005 70.3008V54.1224C44.6999 54.7668 48.6005 58.095 48.6005 62.1ZM27.0005 62.1C27.0005 58.095 30.9011 54.7668 36.0005 54.1224V70.0776C30.9011 69.4332 27.0005 66.105 27.0005 62.1ZM48.6005 81.9C48.6005 85.905 44.6999 89.2332 39.6005 89.8776V73.9224C44.6999 74.5668 48.6005 77.895 48.6005 81.9Z" fill="#00485A"/>
<path d="M6.48025 54.3115C5.57859 53.893 4.50841 54.2847 4.08985 55.1863C1.38071 61.0168 -0.015355 67.3709 0.000251488 73.8001C0.000251488 96.4927 12.7173 108 37.8003 108C42.8685 108.08 47.9255 107.497 52.8429 106.267C53.8037 106.011 54.3754 105.025 54.12 104.064C53.8645 103.104 52.8785 102.532 51.9177 102.787C47.3004 103.928 42.5557 104.47 37.8003 104.4C14.7873 104.4 3.60025 94.3903 3.60025 73.8001C3.56787 67.8919 4.8511 62.0506 7.35685 56.7001C7.77387 55.7984 7.38154 54.7293 6.48025 54.3115Z" fill="#00485A"/>
<path d="M102.6 44.9999H63.0002C60.0179 44.9999 57.6002 47.4176 57.6002 50.3999V102.6C57.6002 105.582 60.0179 108 63.0002 108H102.6C105.583 108 108 105.582 108 102.6V50.3999C108 47.4176 105.583 44.9999 102.6 44.9999ZM104.4 102.6C104.4 103.594 103.594 104.4 102.6 104.4H63.0002C62.0061 104.4 61.2002 103.594 61.2002 102.6V50.3999C61.2002 49.4058 62.0061 48.5999 63.0002 48.5999H102.6C103.594 48.5999 104.4 49.4058 104.4 50.3999V102.6Z" fill="#00485A"/>
<path d="M70.2 68.4H95.4C97.3882 68.4 99 66.7882 99 64.8V57.6C99 55.6118 97.3882 54 95.4 54H70.2C68.2118 54 66.6 55.6118 66.6 57.6V64.8C66.6 66.7882 68.2118 68.4 70.2 68.4ZM70.2 57.6H95.4V64.8H70.2V57.6Z" fill="#00485A"/>
<path d="M73.8 73.8H68.4C67.4059 73.8 66.6 74.6059 66.6 75.6C66.6 76.5941 67.4059 77.4 68.4 77.4H73.8C74.7941 77.4 75.6 76.5941 75.6 75.6C75.6 74.6059 74.7941 73.8 73.8 73.8Z" fill="#00485A"/>
<path d="M73.8 81H68.4C67.4059 81 66.6 81.8059 66.6 82.8C66.6 83.7941 67.4059 84.6 68.4 84.6H73.8C74.7941 84.6 75.6 83.7941 75.6 82.8C75.6 81.8059 74.7941 81 73.8 81Z" fill="#00485A"/>
<path d="M73.8 88.2H68.4C67.4059 88.2 66.6 89.0059 66.6 90C66.6 90.9941 67.4059 91.8 68.4 91.8H73.8C74.7941 91.8 75.6 90.9941 75.6 90C75.6 89.0059 74.7941 88.2 73.8 88.2Z" fill="#00485A"/>
<path d="M73.8 95.4001H68.4C67.4059 95.4001 66.6 96.2059 66.6 97.2C66.6 98.1942 67.4059 99 68.4 99H73.8C74.7941 99 75.6 98.1942 75.6 97.2C75.6 96.2059 74.7941 95.4001 73.8 95.4001Z" fill="#00485A"/>
<path d="M86.4 73.8H81C80.0058 73.8 79.2 74.6059 79.2 75.6C79.2 76.5941 80.0058 77.4 81 77.4H86.4C87.3941 77.4 88.2 76.5941 88.2 75.6C88.2 74.6059 87.3941 73.8 86.4 73.8Z" fill="#00485A"/>
<path d="M86.4 81H81C80.0058 81 79.2 81.8059 79.2 82.8C79.2 83.7941 80.0058 84.6 81 84.6H86.4C87.3941 84.6 88.2 83.7941 88.2 82.8C88.2 81.8059 87.3941 81 86.4 81Z" fill="#00485A"/>
<path d="M86.4 88.2H81C80.0058 88.2 79.2 89.0059 79.2 90C79.2 90.9941 80.0058 91.8 81 91.8H86.4C87.3941 91.8 88.2 90.9941 88.2 90C88.2 89.0059 87.3941 88.2 86.4 88.2Z" fill="#00485A"/>
<path d="M86.4 95.4001H81C80.0058 95.4001 79.2 96.2059 79.2 97.2C79.2 98.1942 80.0058 99 81 99H86.4C87.3941 99 88.2 98.1942 88.2 97.2C88.2 96.2059 87.3941 95.4001 86.4 95.4001Z" fill="#00485A"/>
<path d="M99.0005 73.8H93.6005C92.6064 73.8 91.8005 74.6059 91.8005 75.6C91.8005 76.5941 92.6064 77.4 93.6005 77.4H99.0005C99.9947 77.4 100.801 76.5941 100.801 75.6C100.801 74.6059 99.9947 73.8 99.0005 73.8Z" fill="#00485A"/>
<path d="M99.0005 81H93.6005C92.6064 81 91.8005 81.8059 91.8005 82.8C91.8005 83.7941 92.6064 84.6 93.6005 84.6H99.0005C99.9947 84.6 100.801 83.7941 100.801 82.8C100.801 81.8059 99.9947 81 99.0005 81Z" fill="#00485A"/>
<path d="M99.0005 88.2H93.6005C92.6064 88.2 91.8005 89.0059 91.8005 90C91.8005 90.9941 92.6064 91.8 93.6005 91.8H99.0005C99.9947 91.8 100.801 90.9941 100.801 90C100.801 89.0059 99.9947 88.2 99.0005 88.2Z" fill="#00485A"/>
<path d="M99.0005 95.4001H93.6005C92.6064 95.4001 91.8005 96.2059 91.8005 97.2C91.8005 98.1942 92.6064 99 93.6005 99H99.0005C99.9947 99 100.801 98.1942 100.801 97.2C100.801 96.2059 99.9947 95.4001 99.0005 95.4001Z" fill="#00485A"/>
<path d="M11.385 2.27339C6.6456 6.61499 14.9724 20.007 19.8792 27H18.9C17.2279 26.9939 15.6227 27.6562 14.4414 28.8396C13.2641 30.0259 12.6024 31.6287 12.6 33.3C12.6077 35.543 13.8112 37.6116 15.7572 38.727C13.6561 40.9493 11.6768 43.2838 9.828 45.72C9.23153 46.5153 9.39271 47.6435 10.188 48.24C10.9833 48.8365 12.1115 48.6753 12.708 47.88C14.9314 44.9712 17.3361 42.2057 19.908 39.6H56.7C58.9508 39.6 61.0306 38.3992 62.156 36.45C63.2813 34.5008 63.2813 32.0992 62.156 30.15C61.0306 28.2008 58.9508 27 56.7 27H55.7208C60.6258 20.007 68.9526 6.61679 64.2168 2.27339C62.0388 0.278991 59.5008 1.73339 57.2634 3.00599C55.2288 4.39937 52.8598 5.22569 50.4 5.39999C48.4473 5.39587 46.5858 4.57317 45.2682 3.13199C43.2985 1.12939 40.6072 0.00152969 37.7982 0.00152969C34.9893 0.00152969 32.2979 1.12939 30.3282 3.13199C29.0085 4.57548 27.1432 5.39839 25.1874 5.39999C22.7289 5.2275 20.3612 4.40097 18.3294 3.00599C16.0938 1.72979 13.5576 0.280791 11.385 2.27339ZM58.6134 31.3884C59.3879 32.1609 59.6197 33.3244 59.2005 34.3347C58.7813 35.3451 57.7939 36.0027 56.7 36H18.9C17.4088 36 16.2 34.7912 16.2 33.3C16.2 31.8088 17.4088 30.6 18.9 30.6H56.7C57.4168 30.6002 58.1045 30.8836 58.6134 31.3884ZM25.1874 8.99999C27.9975 8.99959 30.6896 7.87047 32.6592 5.86619C33.9738 4.42203 35.8363 3.59888 37.7892 3.59888C39.7421 3.59888 41.6046 4.42203 42.9192 5.86619C44.8915 7.87201 47.587 9.0012 50.4 8.99999C53.4906 8.83761 56.4805 7.84656 59.0562 6.13079C59.878 5.55074 60.8077 5.14128 61.7904 4.92659C63.6372 6.61859 58.7556 16.8228 51.2928 27H46.8V18C46.8 17.0059 45.9941 16.2 45 16.2C44.0059 16.2 43.2 17.0059 43.2 18V27H32.4V18C32.4 17.0059 31.5941 16.2 30.6 16.2C29.6059 16.2 28.8 17.0059 28.8 18V27H24.3144C16.8516 16.8228 11.97 6.61859 13.842 4.89959C14.8043 5.15663 15.7169 5.57276 16.542 6.13079C19.1138 7.84634 22.1002 8.83746 25.1874 8.99999Z" fill="#00485A"/>
</g>
<defs>
<clipPath id="clip0_1_894">
<rect width="108" height="108" fill="white"/>
</clipPath>
</defs>
</svg>
