<svg width="15" height="15" viewBox="0 0 15 15" fill="none" xmlns="http://www.w3.org/2000/svg">
<g clip-path="url(#clip0_1_802)">
<path d="M12.1606 6.64929C12.403 6.40577 12.4859 6.05155 12.3815 5.71947C12.2772 5.3874 12.0071 5.15336 11.6726 5.10276L8.70477 4.65683C8.57894 4.63785 8.46845 4.55562 8.41321 4.4386L7.08429 1.66813C6.93698 1.35503 6.63314 1.16211 6.29554 1.16211C5.95794 1.16211 5.65717 1.35503 5.50678 1.66813L4.18093 4.4386C4.12569 4.55562 4.0152 4.63785 3.88937 4.65683L0.921562 5.10276C0.587032 5.15336 0.313883 5.3874 0.209534 5.71947C0.105185 6.05155 0.191119 6.40577 0.433577 6.64929L2.58194 8.80621C2.67401 8.89793 2.71391 9.03076 2.69243 9.16043L2.18603 12.206C2.14306 12.4749 2.21058 12.7374 2.37938 12.9398C2.64332 13.2624 3.09755 13.3573 3.46584 13.1612L6.11446 11.7253C6.22495 11.6652 6.36613 11.6652 6.47661 11.7253L9.13137 13.1643C9.26028 13.2339 9.39838 13.2719 9.53956 13.2719C9.79737 13.2719 10.046 13.1517 10.2148 12.9461C10.3836 12.7405 10.4511 12.478 10.4081 12.2124L9.90172 9.16675C9.88023 9.03708 9.9232 8.90425 10.0122 8.81254L12.1606 6.64929Z" fill="white"/>
</g>
<defs>
<clipPath id="clip0_1_802">
<rect width="14.489" height="14.3115" fill="white" transform="translate(0.166016 0.0605469)"/>
</clipPath>
</defs>
</svg>
